<svg xmlns="http://www.w3.org/2000/svg" x="0px" y="0px"
width="90" height="90"
viewBox="0 0 172 172"
style=" fill:#000000;"><g fill="none" fill-rule="nonzero" stroke="none" stroke-width="1" stroke-linecap="butt" stroke-linejoin="miter" stroke-miterlimit="10" stroke-dasharray="" stroke-dashoffset="0" font-family="none" font-weight="none" font-size="none" text-anchor="none" style="mix-blend-mode: normal"><path d="M0,172v-172h172v172z" fill="none"></path><g fill="#ffffff"><path d="M149.06667,31.53333c0,-4.7472 -3.8528,-8.6 -8.6,-8.6h-53.41173c-14.70027,0 -28.14493,8.3076 -34.71533,21.45413l-19.5736,39.1472c-2.69467,5.38933 -4.09933,11.3348 -4.09933,17.36053v48.17147h45.86667v-22.93333c9.13893,-0.17773 24.77373,-8.55413 28.66667,-17.2h28.66667c3.1648,0 5.73333,-2.56853 5.73333,-5.73333v0c0,-9.50013 -7.69987,-17.2 -17.2,-17.2h-32.78893c-3.7324,0 -6.4672,-3.50307 -5.56133,-7.12653l0.69373,-2.78067c1.91493,-7.654 8.79493,-13.02613 16.684,-13.02613h35.30587c4.7472,0 8.6,-3.8528 8.6,-8.6c0,-4.7472 -3.8528,-8.6 -8.6,-8.6h-37.26667c-1.5824,0 -2.86667,-1.28427 -2.86667,-2.86667c0,-1.5824 1.28427,-2.86667 2.86667,-2.86667h43c4.7472,0 8.6,-3.8528 8.6,-8.6z"></path></g></g></svg>