<svg xmlns="http://www.w3.org/2000/svg" x="0px" y="0px"
width="90" height="90"
viewBox="0 0 172 172"
style=" fill:#000000;"><g fill="none" fill-rule="nonzero" stroke="none" stroke-width="1" stroke-linecap="butt" stroke-linejoin="miter" stroke-miterlimit="10" stroke-dasharray="" stroke-dashoffset="0" font-family="none" font-weight="none" font-size="none" text-anchor="none" style="mix-blend-mode: normal"><path d="M0,172v-172h172v172z" fill="none"></path><g fill="#ffffff"><path d="M73.76067,22.93333c-6.9144,0 -13.60421,2.42699 -18.91328,6.85312l-17.93906,14.94922c-5.2288,4.35733 -8.25286,10.80339 -8.25286,17.60313v58.0612c0,12.66493 10.2684,22.93333 22.93333,22.93333h71.67786c7.91608,0 14.33333,-6.41725 14.33333,-14.33333c-0.00591,-3.50609 -1.29669,-6.88842 -3.62812,-9.50703c5.62025,-2.07858 9.35431,-7.43401 9.36146,-13.4263c-0.00591,-3.50609 -1.29669,-6.88842 -3.62812,-9.50703c5.62025,-2.07858 9.35431,-7.43401 9.36146,-13.4263c-0.00528,-4.51547 -2.13807,-8.76444 -5.75573,-11.46667c3.61766,-2.70222 5.75044,-6.9512 5.75573,-11.46667c0,-7.91608 -6.41725,-14.33333 -14.33333,-14.33333c-0.11202,0.00242 -0.22401,0.00615 -0.33594,0.0112h-48.40859l-5.73333,-5.74453h22.94453l-8.54401,-8.54401c-5.5384,-5.5384 -13.05785,-8.65599 -20.89532,-8.65599z"></path></g></g></svg>