<svg xmlns="http://www.w3.org/2000/svg" x="0px" y="0px"
width="90" height="90"
viewBox="0 0 172 172"
style=" fill:#000000;"><g fill="none" fill-rule="nonzero" stroke="none" stroke-width="1" stroke-linecap="butt" stroke-linejoin="miter" stroke-miterlimit="10" stroke-dasharray="" stroke-dashoffset="0" font-family="none" font-weight="none" font-size="none" text-anchor="none" style="mix-blend-mode: normal"><path d="M0,172v-172h172v172z" fill="none"></path><g fill="#ffffff"><path d="M140.60104,40.16693c-0.57122,-0.00707 -1.15303,0.03377 -1.73568,0.14557l-58.76667,11.2875h-9.78698l12.60886,14.75886c5.37787,6.28947 4.75732,15.55301 -1.37735,21.08567c-5.82507,5.25173 -14.84924,5.14845 -20.54817,-0.23515l-14.23255,-13.4599c-0.59627,-0.56187 -0.89583,-1.32601 -0.89583,-2.08281c0,-0.71093 0.25639,-1.4147 0.78385,-1.97083c1.0836,-1.14667 2.90125,-1.19558 4.05365,-0.11198l14.22136,13.4487c3.5432,3.34253 9.15909,3.41904 12.77682,0.15677c3.82413,-3.45147 4.18784,-9.20836 0.85104,-13.11276l-17.47995,-20.46979l-3.44896,-3.46016c-6.83413,-6.83413 -17.53791,-7.8914 -25.57604,-2.53073l-7.81615,5.20703c-7.97507,5.32053 -12.76563,14.27116 -12.76563,23.85156v41.99219c0,12.66493 10.2684,22.93333 22.93333,22.93333h25.86719c-1.81173,-2.40227 -2.93386,-5.36067 -2.93386,-8.6c0,-4.7128 2.30292,-8.85227 5.81172,-11.46667c-3.5088,-2.6144 -5.81172,-6.75387 -5.81172,-11.46667c0,-7.91773 6.4156,-14.33333 14.33333,-14.33333h23.62761l55.51927,7.25625c4.70707,0.61347 9.0222,-2.70596 9.6414,-7.41302c0.61347,-4.70707 -2.70596,-9.03341 -7.41302,-9.65261l-56.05677,-7.31224l0.48151,-5.81172v-3.02344l44.64609,-8.5664c4.6612,-0.8944 7.71393,-5.40573 6.81953,-10.06693c-0.78259,-4.07855 -4.33273,-6.92684 -8.33124,-6.9763zM71.66667,97.46667c-4.7472,0 -8.6,3.8528 -8.6,8.6c0,4.7472 3.8528,8.6 8.6,8.6h22.93333c4.7472,0 8.6,-3.8528 8.6,-8.6c0,-4.7472 -3.8528,-8.6 -8.6,-8.6zM71.66667,120.4c-4.7472,0 -8.6,3.8528 -8.6,8.6c0,4.7472 3.8528,8.6 8.6,8.6h17.2c4.7472,0 8.6,-3.8528 8.6,-8.6c0,-4.7472 -3.8528,-8.6 -8.6,-8.6z"></path></g></g></svg>